<svg width="150" height="26" viewBox="0 0 150 26" fill="none" xmlns="http://www.w3.org/2000/svg">
<path fill-rule="evenodd" clip-rule="evenodd" d="M38.2504 18.6363L38.5876 17.7423H33.3858L33.1948 18.0716C32.3627 19.5063 30.8706 20.3855 28.9427 20.3855C27.6275 20.3855 26.5386 19.9841 25.7308 19.2897C25.0862 18.7356 24.5937 17.9717 24.3143 17.0155H38.5223L38.6143 16.4633C38.6863 16.0314 38.7224 15.5986 38.7224 15.1652C38.7224 9.65585 34.8336 5.08813 28.9427 5.08813C23.3435 5.08813 19.1299 9.4289 19.1299 15.0992C19.1299 20.8009 23.342 25.1432 28.9427 25.1432C33.2227 25.1432 36.7352 22.6533 38.2504 18.6363ZM28.9427 9.74673C30.1832 9.74673 31.2235 10.1037 32.0225 10.7358C32.6344 11.2198 33.1279 11.8836 33.4603 12.7203H24.4775C25.1938 10.8558 26.8063 9.74673 28.9427 9.74673Z" fill="url(#paint0_linear)"/>
<path fill-rule="evenodd" clip-rule="evenodd" d="M50.0158 9.86521L50.0137 9.8647L50.0117 9.86421C48.6113 9.52676 47.4236 9.23885 46.5748 8.79389C46.1615 8.57723 45.8713 8.34372 45.6844 8.08716C45.5051 7.84105 45.3965 7.54106 45.3965 7.13657C45.3965 6.45061 45.7258 5.90918 46.3295 5.51219C46.9529 5.10226 47.8651 4.85683 48.9318 4.85683C50.0316 4.85683 50.9596 5.14396 51.5964 5.63583C52.2147 6.11345 52.5992 6.81225 52.5992 7.76432V8.42511H57.6873V7.76432C57.6873 5.42617 56.8851 3.46019 55.3534 2.08534C53.8301 0.71808 51.658 0 49.0309 0C46.4663 0 44.2804 0.644974 42.7217 1.90652C41.1465 3.18148 40.2754 5.03667 40.2754 7.30177C40.2754 8.58862 40.5512 9.65717 41.0505 10.5446C41.549 11.4307 42.2502 12.1007 43.0493 12.6214C44.6045 13.6347 46.5995 14.1194 48.3284 14.5394L48.3808 14.5522L48.4171 14.5608C49.8214 14.8952 51.0255 15.1818 51.8933 15.6417C52.3187 15.8671 52.6218 16.1143 52.8193 16.3924C53.0101 16.6611 53.1278 16.994 53.1278 17.4449C53.1278 18.2582 52.7369 18.929 52.0533 19.4188C51.3567 19.9178 50.3589 20.2203 49.2291 20.2203C47.9853 20.2203 46.935 19.8859 46.211 19.3137C45.5034 18.7543 45.0661 17.9381 45.0661 16.8502V16.1894H39.8789V16.8502C39.8789 19.3897 40.8354 21.4864 42.5249 22.9391C44.2036 24.3825 46.5495 25.1432 49.2622 25.1432C51.7142 25.1432 53.9764 24.5051 55.6414 23.2021C57.3249 21.8845 58.3481 19.9231 58.3481 17.4119C58.3481 14.6809 57.1668 12.9762 55.4856 11.8708C53.8966 10.826 51.8675 10.3236 50.1182 9.89057L50.1182 9.89057L50.0158 9.86521ZM50.8708 4.50808C52.2941 5.01332 53.26 6.12237 53.26 7.76432H53.2601C53.2601 6.12234 52.2942 5.01328 50.8708 4.50808ZM47.2885 9.80891C48.0402 10.0689 48.9062 10.2776 49.8133 10.4961L49.8571 10.5067L49.9071 10.5191C50.9134 10.7683 51.9667 11.0292 52.9617 11.385C51.9667 11.0292 50.9133 10.7683 49.907 10.519L49.8569 10.5066L49.8131 10.4961C48.9061 10.2775 48.0402 10.0689 47.2885 9.80891ZM45.1189 23.7383C42.2837 22.5905 40.5399 20.1686 40.5399 16.8503H44.4053C44.4053 16.8503 44.4053 16.8503 44.4053 16.8502H40.5397C40.5397 17.0746 40.5477 17.2949 40.5634 17.511C40.7806 20.4903 42.4753 22.6681 45.1189 23.7383ZM47.1646 20.5595C47.7871 20.7716 48.4858 20.8811 49.2293 20.8811C51.7073 20.8811 53.7888 19.5595 53.7888 17.445C53.7888 15.9164 52.7063 15.1527 51.1709 14.6198C52.7062 15.1527 53.7886 15.9164 53.7886 17.4449C53.7886 19.5595 51.7071 20.8811 49.2291 20.8811C48.4857 20.8811 47.7871 20.7716 47.1646 20.5595Z" fill="url(#paint1_linear)"/>
<path fill-rule="evenodd" clip-rule="evenodd" d="M69.1192 25.1432C74.9265 25.1432 79.2954 20.8587 79.2954 15.0992C79.2954 9.37113 74.9249 5.08813 69.1192 5.08813C63.2835 5.08813 58.9099 9.33506 58.9099 15.0992C58.9099 20.8602 63.2804 25.1432 69.1192 25.1432ZM69.1192 20.3194C66.0885 20.3194 63.965 18.1778 63.965 15.0992C63.965 12.056 66.086 9.91192 69.1192 9.91192C72.1168 9.91192 74.2403 12.0535 74.2403 15.0992C74.2403 18.1803 72.1143 20.3194 69.1192 20.3194ZM71.0932 24.3001C70.4604 24.4199 69.8007 24.4824 69.1193 24.4824C63.6347 24.4824 59.5708 20.4846 59.5708 15.0991C59.5708 10.8918 62.0512 7.55152 65.7515 6.29146C62.0511 7.55149 59.5707 10.8918 59.5707 15.0992C59.5707 20.4846 63.6346 24.4824 69.1192 24.4824C69.8006 24.4824 70.4604 24.42 71.0932 24.3001ZM71.178 20.6444C73.4291 19.8631 74.9012 17.7836 74.9012 15.0991C74.9012 11.696 72.4893 9.2511 69.1193 9.2511C68.4811 9.2511 67.8779 9.33707 67.3188 9.4992C67.8779 9.33709 68.4811 9.25113 69.1192 9.25113C72.4892 9.25113 74.9011 11.6961 74.9011 15.0992C74.9011 17.7836 73.429 19.8631 71.178 20.6444Z" fill="url(#paint2_linear)"/>
<path fill-rule="evenodd" clip-rule="evenodd" d="M97.566 16.4869V5.5177H92.577V15.9913C92.577 17.4145 92.1949 18.4904 91.569 19.2014C90.9523 19.9018 90.0371 20.3195 88.8105 20.3195C87.5799 20.3195 86.6557 19.9072 86.0322 19.2099C85.4004 18.5034 85.011 17.4293 85.011 15.9913V5.5177H80.022V16.4869C80.022 19.0488 80.8762 21.2264 82.4367 22.7643C83.9965 24.3012 86.205 25.1433 88.8105 25.1433C91.4163 25.1433 93.6173 24.3011 95.1692 22.7629C96.7214 21.2243 97.566 19.0468 97.566 16.4869ZM88.8105 24.4825C83.8876 24.4825 80.6828 21.3107 80.6828 16.4869V6.17849H80.6831V16.4868C80.6831 21.3106 83.8879 24.4824 88.8108 24.4824C89.5799 24.4824 90.3063 24.405 90.9845 24.256C90.3062 24.405 89.5797 24.4825 88.8105 24.4825ZM93.2381 6.17849H93.2378V15.9913C93.2378 18.5568 92.0862 20.3162 90.0906 20.8271C92.0864 20.3162 93.2381 18.5568 93.2381 15.9912V6.17849Z" fill="url(#paint3_linear)"/>
<path fill-rule="evenodd" clip-rule="evenodd" d="M102.423 8.62331L101.828 6.17837H99.3502V6.17839H101.828L102.423 8.62333C102.423 8.62332 102.423 8.62331 102.423 8.62331ZM102.953 8.00484C104.181 6.72836 105.782 6.07927 107.908 6.07927H109.493V9.54842H109.493V6.07925H107.908C105.782 6.07925 104.181 6.72835 102.953 8.00484ZM104.009 10.9862C103.346 11.8236 103.018 13.0165 103.018 14.5374V24.0198H103.018V14.5374C103.018 13.0165 103.346 11.8236 104.009 10.9862ZM107.908 5.41846C105.777 5.41846 104.092 6.03454 102.771 7.25772L102.348 5.51758H98.6895V24.6806H103.678V14.5374C103.678 13.0073 104.031 11.9446 104.634 11.2686C105.225 10.6063 106.152 10.2092 107.544 10.2092H110.154V5.41846H107.908Z" fill="url(#paint4_linear)"/>
<path fill-rule="evenodd" clip-rule="evenodd" d="M129.466 17.6923L129.652 16.8833H124.69L124.516 17.2783C123.661 19.2261 122.01 20.3194 119.934 20.3194C117.157 20.3194 114.978 18.0684 114.978 15.0992C114.978 12.1323 117.121 9.91192 119.934 9.91192C121.997 9.91192 123.738 11.0238 124.552 12.8271L124.728 13.2159H129.628L129.431 12.3997C128.366 7.99769 124.658 5.08813 119.934 5.08813C114.25 5.08813 109.923 9.41482 109.923 15.0992C109.923 20.7804 114.247 25.1432 119.934 25.1432C124.626 25.1432 128.436 22.1648 129.466 17.6923ZM125.121 17.5441H125.121C124.411 19.1604 123.193 20.2684 121.654 20.7337C123.193 20.2684 124.411 19.1604 125.121 17.5441ZM121.218 24.4014C120.8 24.4549 120.371 24.4824 119.934 24.4824C114.615 24.4824 110.584 20.4185 110.584 15.0991C110.584 10.9434 113.044 7.5741 116.657 6.29887C113.044 7.57408 110.584 10.9434 110.584 15.0992C110.584 20.4185 114.615 24.4824 119.934 24.4824C120.371 24.4824 120.8 24.455 121.218 24.4014ZM128.789 12.5551C128.789 12.5551 128.789 12.5551 128.789 12.5551H125.154C124.229 10.5066 122.247 9.25113 119.934 9.25113C119.333 9.25113 118.76 9.34057 118.226 9.50769C118.76 9.34055 119.333 9.2511 119.934 9.2511C122.247 9.2511 124.229 10.5066 125.154 12.5551H128.789Z" fill="url(#paint5_linear)"/>
<path fill-rule="evenodd" clip-rule="evenodd" d="M149.528 18.6363L149.865 17.7423H144.663L144.472 18.0716C143.64 19.5063 142.148 20.3855 140.22 20.3855C138.905 20.3855 137.816 19.9841 137.008 19.2897C136.364 18.7356 135.871 17.9717 135.592 17.0155H149.8L149.892 16.4633C149.964 16.0314 150 15.5986 150 15.1652C150 9.65585 146.111 5.08813 140.22 5.08813C134.621 5.08813 130.407 9.4289 130.407 15.0992C130.407 20.8009 134.62 25.1432 140.22 25.1432C144.5 25.1432 148.013 22.6533 149.528 18.6363ZM141.005 21.0005C142.786 20.7882 144.206 19.8487 145.044 18.4031H145.044C144.206 19.8486 142.785 20.7882 141.005 21.0005ZM140.917 24.4586C140.688 24.4744 140.455 24.4824 140.22 24.4824C135 24.4824 131.069 20.4515 131.069 15.0991C131.069 10.2785 134.297 6.51614 138.788 5.85295C134.297 6.51604 131.068 10.2785 131.068 15.0992C131.068 20.4516 135 24.4824 140.22 24.4824C140.455 24.4824 140.688 24.4744 140.917 24.4586ZM149.24 16.3546H134.769C134.769 16.3546 134.769 16.3547 134.769 16.3547H149.24C149.24 16.3547 149.24 16.3546 149.24 16.3546ZM140.22 9.74673C141.461 9.74673 142.501 10.1037 143.3 10.7358C143.912 11.2198 144.405 11.8836 144.738 12.7203H135.755C136.471 10.8558 138.084 9.74673 140.22 9.74673ZM140.22 9.08593C142.731 9.08593 144.633 10.4158 145.443 12.7203C145.518 12.9324 145.583 13.1527 145.639 13.3811H145.639C144.978 10.6718 142.963 9.0859 140.22 9.0859C140.008 9.0859 139.799 9.09587 139.595 9.11549C139.799 9.09589 140.007 9.08593 140.22 9.08593Z" fill="url(#paint6_linear)"/>
<path d="M15.3567 15.488C15.2104 15.235 15.2787 14.9004 15.5264 14.7486C17.7118 13.4077 18.8665 10.9489 18.8665 8.2189C18.8665 3.11483 15.5977 0.06604 9.5325 0.06604H0.890958C0.492246 0.06604 0.240429 0.502452 0.435288 0.85597L2.46242 4.53865C2.55475 4.70627 2.72922 4.8105 2.91809 4.8105H8.90895C11.116 4.8105 12.5483 6.23188 12.5483 8.33897C12.5483 10.4802 11.2005 11.8333 8.92574 11.8333H7.35608C6.95736 11.8333 6.70614 12.2691 6.9004 12.6226L8.82681 16.1322H8.8412L12.447 22.7266C13.4914 24.6447 14.1318 25.1762 15.6313 25.1762C17.4342 25.1762 18.7148 23.9773 18.7148 22.3157C18.7148 21.5794 18.5967 21.0656 18.0577 20.1574L15.3567 15.488Z" fill="url(#paint7_linear)"/>
<path d="M3.04639 25.1762C4.72887 25.1762 6.09279 23.7896 6.09279 22.0792C6.09279 20.3689 4.72887 18.9823 3.04639 18.9823C1.36392 18.9823 0 20.3689 0 22.0792C0 23.7896 1.36392 25.1762 3.04639 25.1762Z" fill="url(#paint8_linear)"/>
<defs>
<linearGradient id="paint0_linear" x1="28.9261" y1="5.08813" x2="28.9261" y2="25.1432" gradientUnits="userSpaceOnUse">
<stop stop-color="#D669FF"/>
<stop offset="1" stop-color="#7161EF"/>
</linearGradient>
<linearGradient id="paint1_linear" x1="49.1135" y1="0" x2="49.1135" y2="25.1432" gradientUnits="userSpaceOnUse">
<stop stop-color="#D669FF"/>
<stop offset="1" stop-color="#7161EF"/>
</linearGradient>
<linearGradient id="paint2_linear" x1="69.1026" y1="5.08813" x2="69.1026" y2="25.1432" gradientUnits="userSpaceOnUse">
<stop stop-color="#D669FF"/>
<stop offset="1" stop-color="#7161EF"/>
</linearGradient>
<linearGradient id="paint3_linear" x1="88.794" y1="5.5177" x2="88.794" y2="25.1433" gradientUnits="userSpaceOnUse">
<stop stop-color="#D669FF"/>
<stop offset="1" stop-color="#7161EF"/>
</linearGradient>
<linearGradient id="paint4_linear" x1="104.422" y1="5.41846" x2="104.422" y2="24.6806" gradientUnits="userSpaceOnUse">
<stop stop-color="#D669FF"/>
<stop offset="1" stop-color="#7161EF"/>
</linearGradient>
<linearGradient id="paint5_linear" x1="119.788" y1="5.08813" x2="119.788" y2="25.1432" gradientUnits="userSpaceOnUse">
<stop stop-color="#D669FF"/>
<stop offset="1" stop-color="#7161EF"/>
</linearGradient>
<linearGradient id="paint6_linear" x1="140.204" y1="5.08813" x2="140.204" y2="25.1432" gradientUnits="userSpaceOnUse">
<stop stop-color="#D669FF"/>
<stop offset="1" stop-color="#7161EF"/>
</linearGradient>
<linearGradient id="paint7_linear" x1="9.43327" y1="0.06604" x2="9.43327" y2="25.1762" gradientUnits="userSpaceOnUse">
<stop stop-color="#D669FF"/>
<stop offset="1" stop-color="#7161EF"/>
</linearGradient>
<linearGradient id="paint8_linear" x1="9.43327" y1="0.06604" x2="9.43327" y2="25.1762" gradientUnits="userSpaceOnUse">
<stop stop-color="#D669FF"/>
<stop offset="1" stop-color="#7161EF"/>
</linearGradient>
</defs>
</svg>
