<svg width="64" height="64" viewBox="0 0 64 64" fill="none" xmlns="http://www.w3.org/2000/svg">
<path d="M32 0C14.3271 0 0 14.3271 0 32C0 49.6729 14.3271 64 32 64C49.6729 64 64 49.6729 64 32C64 14.3271 49.6729 0 32 0Z" fill="#F2F2F2"/>
<path d="M41.1858 36.1813C40.9689 35.8124 41.0703 35.3245 41.4374 35.1031C44.6774 33.1476 46.3894 29.5618 46.3894 25.5805C46.3894 18.1369 41.5431 13.6907 32.5511 13.6907H19.7396C19.1485 13.6907 18.7752 14.3271 19.064 14.8427L22.0694 20.2133C22.2063 20.4578 22.4649 20.6098 22.7449 20.6098H31.6267C34.8987 20.6098 37.0223 22.6827 37.0223 25.7556C37.0223 28.8782 35.024 30.8516 31.6516 30.8516H29.3245C28.7334 30.8516 28.3609 31.4871 28.6489 32.0027L31.5049 37.1209H31.5263L36.872 46.7378C38.4205 49.5351 39.3698 50.3102 41.5929 50.3102C44.2658 50.3102 46.1645 48.5618 46.1645 46.1387C46.1645 45.0649 45.9894 44.3156 45.1903 42.9911L41.1858 36.1813Z" fill="url(#paint0_linear)"/>
<path d="M22.9351 50.3102C25.4295 50.3102 27.4516 48.2882 27.4516 45.7938C27.4516 43.2994 25.4295 41.2773 22.9351 41.2773C20.4408 41.2773 18.4187 43.2994 18.4187 45.7938C18.4187 48.2882 20.4408 50.3102 22.9351 50.3102Z" fill="url(#paint1_linear)"/>
<defs>
<linearGradient id="paint0_linear" x1="32.404" y1="13.6907" x2="32.404" y2="50.3102" gradientUnits="userSpaceOnUse">
<stop stop-color="#D669FF"/>
<stop offset="1" stop-color="#7161EF"/>
</linearGradient>
<linearGradient id="paint1_linear" x1="32.404" y1="13.6907" x2="32.404" y2="50.3102" gradientUnits="userSpaceOnUse">
<stop stop-color="#D669FF"/>
<stop offset="1" stop-color="#7161EF"/>
</linearGradient>
</defs>
</svg>
