<svg width="260" height="260" viewBox="0 0 260 260" fill="none" xmlns="http://www.w3.org/2000/svg">
<path d="M130 0C201.797 0 260 58.203 260 130C260 201.797 201.797 260 130 260C58.203 260 0 201.797 0 130C0 58.203 58.203 0 130 0Z" fill="url(#paint0_linear)"/>
<path d="M60.44 137.144C60.44 125.864 43.784 128.504 43.784 122.648C43.784 120.536 45.272 119.528 47.24 119.576C49.448 119.624 50.984 120.92 51.128 123.08H60.008C59.672 116.648 54.728 113 47.384 113C40.328 113 35.096 116.552 35.096 122.936C35 134.888 51.848 131.528 51.848 137.768C51.848 139.736 50.312 140.936 47.912 140.936C45.608 140.936 43.976 139.688 43.736 137.096H35C35.24 143.912 40.904 147.512 48.152 147.512C56.024 147.512 60.44 142.808 60.44 137.144Z" fill="white"/>
<path d="M98.6592 130.232C98.6592 120.104 91.0273 113 81.4273 113C71.8753 113 64.0992 120.104 64.0992 130.232C64.0992 140.36 71.8753 147.512 81.4273 147.512C90.9793 147.512 98.6592 140.36 98.6592 130.232ZM72.4993 130.232C72.4993 124.232 75.9553 120.44 81.4273 120.44C86.8033 120.44 90.3073 124.232 90.3073 130.232C90.3073 136.136 86.8033 140.024 81.4273 140.024C75.9553 140.024 72.4993 136.136 72.4993 130.232Z" fill="white"/>
<path d="M103.082 133.592C103.082 142.904 109.178 147.512 117.002 147.512C124.778 147.512 131.306 142.904 131.306 133.592V113.48H123.098V133.64C123.098 137.624 121.034 139.928 117.146 139.928C113.258 139.928 111.29 137.624 111.29 133.64V113.48H103.082V133.592Z" fill="white"/>
<path d="M154.877 124.424C154.877 127.064 153.437 128.648 150.365 128.648H145.277V120.296H150.365C153.437 120.296 154.877 121.928 154.877 124.424ZM137.069 113.48V147.176H145.277V134.456H147.245L154.253 147.176H163.517L155.741 133.832C160.925 132.296 163.229 128.312 163.229 124.088C163.229 118.232 159.101 113.48 150.845 113.48H137.069Z" fill="white"/>
<path d="M166.99 130.28C166.99 140.36 173.998 147.416 183.934 147.416C191.95 147.416 197.998 142.952 199.918 135.656H190.894C189.502 138.536 186.958 139.976 183.838 139.976C178.798 139.976 175.342 136.232 175.342 130.28C175.342 124.328 178.798 120.584 183.838 120.584C186.958 120.584 189.502 122.024 190.894 124.904H199.918C197.998 117.608 191.95 113.096 183.934 113.096C173.998 113.096 166.99 120.2 166.99 130.28Z" fill="white"/>
<path d="M225.584 113.48H204.944V147.176H225.584V140.6H213.152V133.208H224.144V126.872H213.152V120.056H225.584V113.48Z" fill="white"/>
<defs>
<linearGradient id="paint0_linear" x1="258.984" y1="1.01571" x2="-1.01561" y2="261.015" gradientUnits="userSpaceOnUse">
<stop offset="0.1075" stop-color="#699DFF"/>
<stop offset="0.8891" stop-color="#0A54FF"/>
</linearGradient>
</defs>
</svg>
