<svg width="260" height="260" viewBox="0 0 260 260" fill="none" xmlns="http://www.w3.org/2000/svg">
<path d="M130 0C201.797 0 260 58.203 260 130C260 201.797 201.797 260 130 260C58.203 260 0 201.797 0 130C0 58.203 58.203 0 130 0Z" fill="url(#paint0_linear)"/>
<path fill-rule="evenodd" clip-rule="evenodd" d="M148.302 128.63L114.301 187.52L80.2701 128.575L71.6111 143.572L64.7041 155.646L46.1671 187.754L30.3931 158.924L80.3011 72.48L114.301 131.369L148.301 72.48L182.361 131.474L203.523 95.24H232.457L182.469 187.812L148.302 128.63Z" fill="white"/>
<path fill-rule="evenodd" clip-rule="evenodd" d="M182.301 176L148.301 117.111L114.301 176L80.269 117.055L59.64 152.786L59.716 152.766L46.301 176L37 159L80.301 84L114.301 142.889L148.301 84L182.333 142.945L206.83 101H222.801L182.301 176Z" fill="white"/>
<defs>
<linearGradient id="paint0_linear" x1="258.984" y1="1.01571" x2="-1.01561" y2="261.015" gradientUnits="userSpaceOnUse">
<stop offset="0.1075" stop-color="#699DFF"/>
<stop offset="0.8891" stop-color="#0A54FF"/>
</linearGradient>
</defs>
</svg>
