<svg width="10" height="10" viewBox="0 0 10 10" fill="none" xmlns="http://www.w3.org/2000/svg">
<path d="M5 0C2.23861 0 0 2.23861 0 5C0 7.76139 2.23861 10 5 10C7.76139 10 10 7.76139 10 5C10 2.23861 7.76139 0 5 0Z" fill="url(#paint0_linear)"/>
<path d="M6.51068 5.65333C6.47679 5.59569 6.49263 5.51944 6.54999 5.48485C7.05624 5.1793 7.32374 4.61902 7.32374 3.99694C7.32374 2.83388 6.56652 2.13916 5.16152 2.13916H3.46749H3.15971C3.06735 2.13916 3.00902 2.2386 3.05416 2.31916L3.52374 3.15846C3.54513 3.19666 3.58555 3.22041 3.6293 3.22041H4.1818H4.40582H5.01707C5.52832 3.22041 5.86013 3.5443 5.86013 4.02444C5.86013 4.51236 5.54791 4.82069 5.02096 4.82069H4.65735C4.56499 4.82069 4.5068 4.91999 4.5518 5.00055L4.99804 5.80027H5.00138L5.83666 7.30291C6.0786 7.73999 6.22693 7.86111 6.57429 7.86111C6.99193 7.86111 7.2886 7.58791 7.2886 7.2093C7.2886 7.04152 7.26124 6.92444 7.13638 6.71749L6.51068 5.65333Z" fill="white"/>
<path d="M3.65931 7.86097C4.04905 7.86097 4.365 7.54502 4.365 7.15528C4.365 6.76553 4.04905 6.44958 3.65931 6.44958C3.26956 6.44958 2.95361 6.76553 2.95361 7.15528C2.95361 7.54502 3.26956 7.86097 3.65931 7.86097Z" fill="white"/>
<defs>
<linearGradient id="paint0_linear" x1="10" y1="0.0781247" x2="3.0268e-07" y2="10.0781" gradientUnits="userSpaceOnUse">
<stop stop-color="#D669FF"/>
<stop offset="1" stop-color="#7161EF"/>
</linearGradient>
</defs>
</svg>
